<svg width="132" height="66" viewBox="0 0 132 66" fill="none" xmlns="http://www.w3.org/2000/svg">
<path d="M52.9833 21.9231H53.9007L57.8676 30.7297H56.8015L55.785 28.4096H51.0494L50.0081 30.7297H49.0164L52.9833 21.9231ZM55.3883 27.5115L53.4048 23.0458L51.4213 27.5115H55.3883Z" fill="white"/>
<path d="M59.603 21.9729H60.5948V29.8066H65.4791V30.7297H59.603V21.9729Z" fill="white"/>
<path d="M68.4046 22.896H65.479V21.9729H72.2972V22.896H69.3964V30.7297H68.4046V22.896Z" fill="white"/>
<path d="M74.3054 21.9729H75.2972V30.7047H74.3054V21.9729Z" fill="white"/>
<path d="M77.7271 27.0622V21.9728H78.7188V26.9874C78.7188 28.8834 79.7105 29.9312 81.3717 29.9312C82.9833 29.9312 83.9998 28.9583 83.9998 27.0373V21.9479H84.9915V26.9624C84.9915 29.5071 83.5535 30.8294 81.3717 30.8294C79.1899 30.8543 77.7271 29.5321 77.7271 27.0622Z" fill="white"/>
<path d="M87.3468 21.9729H88.3386L91.5121 26.738L94.6857 21.9729H95.6774V30.7047H94.6857V23.6195L91.5121 28.3097H91.4625L88.289 23.6444V30.7047H87.322V21.9729H87.3468Z" fill="white"/>
<path d="M49.2891 34.4469H52.6362C55.7353 34.4469 57.5453 36.2432 57.5453 38.7629V38.7878C57.5453 41.3076 55.7106 43.1787 52.5866 43.1787H49.2891V34.4469ZM52.6858 41.0332C54.1238 41.0332 55.0907 40.2348 55.0907 38.8128V38.7878C55.0907 37.3908 54.1486 36.5675 52.6858 36.5675H51.694V41.0082H52.6858V41.0332Z" fill="white"/>
<path d="M58.8345 34.4469H65.8262V36.4926H61.2146V37.8149H65.3799V39.7359H61.2146V41.108H65.8758V43.1787H58.8345V34.4469Z" fill="white"/>
<path d="M66.5205 41.8815L67.8593 40.2599C68.7271 40.9584 69.6693 41.3077 70.6858 41.3077C71.3304 41.3077 71.6775 41.0831 71.6775 40.7089V40.684C71.6775 40.3098 71.38 40.1102 70.2147 39.8357C68.3552 39.4116 66.942 38.8877 66.942 37.0915V37.0665C66.942 35.4449 68.2065 34.2723 70.3139 34.2723C71.8015 34.2723 72.942 34.6715 73.8841 35.4449L72.6693 37.1663C71.8759 36.6175 71.0081 36.2931 70.2395 36.2931C69.6445 36.2931 69.3717 36.5426 69.3717 36.842V36.8669C69.3717 37.2661 69.6693 37.4407 70.8841 37.7152C72.8924 38.1642 74.1321 38.8129 74.1321 40.4345V40.4594C74.1321 42.2557 72.7189 43.3035 70.6114 43.3035C69.0494 43.3285 67.5866 42.8545 66.5205 41.8815Z" fill="white"/>
<path d="M75.3716 34.4469H77.8013V43.1787H75.3716V34.4469Z" fill="white"/>
<path d="M79.1401 38.8378C79.1401 36.2682 81.1236 34.2723 83.8261 34.2723C85.3633 34.2723 86.4294 34.7464 87.3468 35.5447L85.9335 37.2661C85.3137 36.7422 84.6939 36.4428 83.8261 36.4428C82.5864 36.4428 81.5947 37.4906 81.5947 38.8378V38.8628C81.5947 40.2599 82.5864 41.2827 83.9501 41.2827C84.5203 41.2827 84.9914 41.158 85.3385 40.9085V39.8607H83.6277V38.0894H87.6195V42.0312C86.7021 42.7796 85.4129 43.3784 83.8509 43.3784C81.1484 43.3534 79.1401 41.4823 79.1401 38.8378Z" fill="white"/>
<path d="M89.0329 34.4469H91.2643L94.8345 39.0623V34.4469H97.2147V43.1787H95.1072L91.3882 38.3887V43.1787H89.0081V34.4469H89.0329Z" fill="white"/>
<path d="M98.8262 34.4469H105.818V36.4926H101.206V37.8149H105.372V39.7359H101.206V41.108H105.867V43.1787H98.8262V34.4469Z" fill="white"/>
<path d="M107.157 34.4469H111.272C112.611 34.4469 113.529 34.7962 114.099 35.3949C114.595 35.8939 114.867 36.5675 114.867 37.4157V37.4407C114.867 38.7629 114.148 39.661 113.082 40.1101L115.165 43.1538H112.388L110.628 40.5093H109.562V43.1538H107.157V34.4469ZM111.148 38.6382C111.967 38.6382 112.438 38.239 112.438 37.5903V37.5654C112.438 36.8669 111.942 36.5176 111.148 36.5176H109.562V38.6132H111.148V38.6382Z" fill="white"/>
<path fill-rule="evenodd" clip-rule="evenodd" d="M10.0165 44.2266V55.9521L2.75207 60.1184C2.47934 60.2681 2.18182 60.343 1.8595 60.343C0.867768 60.343 0.0495868 59.5446 0 58.5467V51.2869V51.0623C0 50.3139 0.421485 49.6652 1.06611 49.3658L10.0165 44.2266Z" fill="url(#paint0_linear_175_536)"/>
<path fill-rule="evenodd" clip-rule="evenodd" d="M2.72727 5.78161C2.75207 5.80656 10.0165 9.99783 10.0165 9.99783C10.0165 9.99783 10.0165 19.0041 10.0165 20.7005C10.0165 20.8752 9.91735 21.0249 9.76859 21.1246C8.52892 21.8481 2.75206 25.2411 0.719007 26.4386C0.570246 26.5134 0.396694 26.5134 0.247934 26.4386C0.0991735 26.3637 0 26.1891 0 26.0145C0 22.2972 0 7.42818 0 7.42818C0.0247934 6.40531 0.842975 5.58203 1.8595 5.58203C2.08264 5.58203 2.30578 5.63193 2.52892 5.70677L2.72727 5.78161Z" fill="url(#paint1_linear_175_536)"/>
<path fill-rule="evenodd" clip-rule="evenodd" d="M0.0249023 51.0873C0.0249023 51.1122 0.0249023 43.1538 0.0249023 39.8607C0.0249023 39.0125 0.47118 38.2141 1.21498 37.79C4.93399 35.6195 16.2646 29.0582 19.2398 27.3368C19.3885 27.2619 19.5621 27.2619 19.7108 27.3368C19.8596 27.4116 19.9588 27.5862 19.9588 27.7609C19.9588 30.1309 19.9588 36.817 19.9588 38.264C19.9588 38.4386 19.8596 38.5883 19.7108 38.6881C17.529 39.9355 1.09101 49.3908 1.09101 49.3908C0.47118 49.6652 0.0249023 50.3389 0.0249023 51.0873Z" fill="url(#paint2_linear_175_536)"/>
<path fill-rule="evenodd" clip-rule="evenodd" d="M2.80167 60.0936C2.80167 60.0936 23.5785 48.0686 28.8347 45.0249C29.5785 44.6008 30.0248 43.8025 30.0248 42.9543C30.0248 38.8877 30.0248 27.0374 30.0248 22.9709C30.0248 22.1227 29.5785 21.3243 28.8347 20.9002C23.5785 17.8565 2.80167 5.8316 2.80167 5.8316C2.52894 5.68191 2.20663 5.58212 1.88432 5.58212C1.68597 5.58212 1.36365 5.65697 1.1901 5.73181C1.1901 5.73181 7.78514 1.91476 10.5372 0.318087C11.281 -0.106029 12.1736 -0.106029 12.9174 0.318087C17.5042 2.98753 34.1157 12.5925 38.7273 15.262C39.4711 15.6861 39.9174 16.4844 39.9174 17.3326C39.9174 22.8462 39.9174 43.2786 39.9174 48.817C39.9174 49.6653 39.4711 50.4636 38.7273 50.8877C34.1405 53.5322 17.6777 63.0624 13.1157 65.6819C12.3719 66.106 11.4794 66.106 10.7603 65.6819C7.9587 64.0603 1.11572 60.1435 1.11572 60.1435C1.36366 60.2682 1.63638 60.3181 1.90911 60.3181C2.20663 60.343 2.52894 60.2432 2.80167 60.0936Z" fill="url(#paint3_linear_175_536)"/>
<path d="M116.678 43.1788V41.3326L119.975 38.7879C120.397 38.4636 120.669 38.1892 120.843 37.9646C121.017 37.7151 121.091 37.4657 121.091 37.1912C121.091 36.9168 120.992 36.6923 120.818 36.5426C120.645 36.3929 120.397 36.2931 120.099 36.2931C119.802 36.2931 119.529 36.368 119.281 36.5426C119.008 36.7172 118.711 37.0166 118.364 37.4158L116.703 36.0436C117.198 35.395 117.719 34.896 118.265 34.5966C118.81 34.2973 119.479 34.1476 120.298 34.1476C121.265 34.1476 122.033 34.422 122.653 34.9459C123.248 35.4698 123.546 36.1684 123.546 37.0166C123.546 37.6902 123.397 38.2391 123.074 38.6881C122.752 39.1372 122.231 39.6112 121.512 40.1351L120 41.2079H123.645V43.2037H116.678V43.1788Z" fill="#B69E64"/>
<path d="M128.504 43.1787V41.4573H124.24L123.843 39.7109L128.405 34.2473H130.884V39.6111H132V41.4573H130.884V43.1787H128.504ZM126.397 39.6361H128.504V37.0914L126.397 39.6361Z" fill="#B69E64"/>
<defs>
<linearGradient id="paint0_linear_175_536" x1="8.15152" y1="57.0392" x2="3.03073" y2="48.2248" gradientUnits="userSpaceOnUse">
<stop stop-color="#D9C185"/>
<stop offset="1" stop-color="#8E783E"/>
</linearGradient>
<linearGradient id="paint1_linear_175_536" x1="-0.584529" y1="26.026" x2="7.80045" y2="8.15587" gradientUnits="userSpaceOnUse">
<stop offset="0.1817" stop-color="#D9C185"/>
<stop offset="1" stop-color="#907C44"/>
</linearGradient>
<linearGradient id="paint2_linear_175_536" x1="1.45218" y1="52.0101" x2="18.2158" y2="26.3564" gradientUnits="userSpaceOnUse">
<stop stop-color="#D9C185"/>
<stop offset="0.2781" stop-color="#C8B176"/>
<stop offset="1" stop-color="#9F8951"/>
</linearGradient>
<linearGradient id="paint3_linear_175_536" x1="20.4817" y1="-0.0121247" x2="20.4817" y2="66.0124" gradientUnits="userSpaceOnUse">
<stop stop-color="#D9C185"/>
<stop offset="0.2253" stop-color="#CEB67A"/>
<stop offset="0.6222" stop-color="#B0995E"/>
<stop offset="1" stop-color="#8E783E"/>
</linearGradient>
</defs>
</svg>
